<?xml version="1.0" encoding="UTF-8"?>
<svg width="1000px" height="1000px" viewBox="0 0 1000 1000" xmlns="http://www.w3.org/2000/svg" xmlns:xlink="http://www.w3.org/1999/xlink" version="1.1">
 <!-- Generated by Pixelmator Pro 2.0.1 -->
 <defs>
  <linearGradient id="linear-gradient" gradientUnits="userSpaceOnUse" x1="20.575" y1="565.64" x2="954.807" y2="449.238">
   <stop offset="0" stop-color="#334be9" stop-opacity="1"/>
   <stop offset="1" stop-color="#cd00be" stop-opacity="1"/>
  </linearGradient>
 </defs>
 <path id="AU-TO" d="M722.925 960 C705.576 960 685.969 957.221 664.103 951.662 L661.73 951.068 661.73 571.742 691.38 544.285 707.39 542.506 C714.505 541.715 721.818 541.32 729.329 541.32 783.488 541.32 830.334 559.702 869.866 596.467 912.956 636.394 934.499 687.588 934.499 750.049 934.499 813.695 914.141 864.89 873.423 903.631 835.077 940 786.058 958.777 726.364 959.963 725.228 959.988 724.082 960 722.925 960 Z M661.73 571.742 L626.151 604.689 626.151 564.447 C636.825 558.517 648.684 553.971 661.73 550.809 L661.73 571.742 Z M626.151 604.689 L626.151 937.43 C611.525 930.314 599.666 922.604 590.573 914.303 L590.573 637.637 626.151 604.689 Z M590.573 637.637 L554.993 670.586 554.993 625.523 C558.947 619.594 564.285 613.071 571.005 605.955 575.749 600.816 582.272 594.688 590.573 587.572 L590.573 637.637 Z M554.993 670.586 L554.993 875.76 547.286 862.715 C527.125 828.717 517.044 791.162 517.044 750.049 517.044 733.841 518.427 719.807 521.194 707.947 L522.974 700.238 554.993 670.586 Z M206.62 959.963 L206.62 595.281 C206.62 583.422 200.691 577.492 188.831 577.492 L80.909 577.492 C76.165 577.492 72.014 575.615 68.456 571.859 64.898 568.104 63.118 564.052 63.118 559.703 63.118 555.355 64.898 551.302 68.456 547.547 72.014 543.791 76.165 541.914 80.909 541.914 L224.409 541.914 C229.944 541.914 234.292 543.891 237.454 547.844 240.617 551.797 242.198 555.75 242.198 559.703 L242.198 908.354 206.62 959.963 Z M242.198 908.354 L277.776 856.742 277.776 942.174 C277.776 946.918 275.998 951.069 272.441 954.627 268.883 958.185 264.731 959.963 259.987 959.963 255.244 959.963 251.094 958.185 247.536 954.627 243.978 951.069 242.198 946.918 242.198 942.174 L242.198 908.354 Z M277.776 856.742 L277.776 559.703 C277.776 554.959 279.556 550.808 283.114 547.25 286.672 543.692 290.822 541.914 295.566 541.914 300.309 541.914 304.461 543.692 308.019 547.25 311.577 550.808 313.357 554.959 313.357 559.703 L313.357 805.129 277.776 856.742 Z M313.357 805.129 L348.935 753.52 348.935 942.174 C348.935 946.918 347.155 951.069 343.597 954.627 340.039 958.185 335.889 959.963 331.146 959.963 326.402 959.963 322.25 958.185 318.693 954.627 315.135 951.069 313.357 946.918 313.357 942.174 L313.357 805.129 Z M348.935 753.52 L348.935 559.703 C348.935 547.844 354.864 541.914 366.724 541.914 L494.808 541.914 348.935 753.52 Z M394.298 478.561 C387.182 478.561 382.043 475.596 378.88 469.666 L330.364 384.566 384.468 407.629 409.714 451.877 C411.295 454.644 412.087 457.609 412.087 460.771 412.087 472.631 406.158 478.561 394.298 478.561 Z M384.468 407.629 L239.53 153.609 C237.949 150.842 237.157 147.679 237.157 144.121 237.157 132.657 242.89 126.926 254.355 126.926 261.47 126.926 266.61 129.891 269.773 135.82 L437.681 430.313 384.468 407.629 Z M437.681 430.313 L491.706 453.342 C492.784 455.683 493.325 458.16 493.325 460.771 493.325 472.631 487.394 478.561 475.534 478.561 468.419 478.561 463.281 475.596 460.118 469.666 L437.681 430.313 Z M491.706 453.342 C491.479 452.847 491.228 452.359 490.952 451.877 L279.853 83.045 C278.271 80.278 277.482 77.115 277.482 73.557 277.482 62.092 283.213 56.361 294.677 56.361 301.397 56.361 306.537 59.326 310.095 65.256 L546.693 476.781 491.706 453.342 Z M330.364 384.566 L289.341 367.08 166.001 367.08 C161.653 367.08 156.711 368.86 151.177 372.418 144.456 376.766 139.118 382.497 135.165 389.613 L89.507 468.48 C85.949 474.41 80.809 477.375 74.089 477.375 62.229 477.375 56.3 471.445 56.3 459.586 56.3 456.423 57.09 453.459 58.671 450.691 L193.278 217.057 C200.394 204.802 207.707 199.071 215.218 199.861 222.334 200.652 227.868 204.605 231.821 211.721 L330.364 384.566 Z M728.441 475.299 L728.441 75.039 C728.441 70.295 726.661 66.144 723.103 62.586 719.545 59.028 715.395 57.25 710.651 57.25 L870.755 57.25 870.755 332.984 C870.755 380.027 853.558 417.188 819.165 444.465 796.632 462.254 772.122 472.137 745.636 474.113 L728.441 475.299 Z M710.651 57.25 C705.908 57.25 701.756 59.028 698.198 62.586 694.64 66.144 692.862 70.295 692.862 75.039 L692.862 471.742 C678.631 468.184 666.77 463.834 657.282 458.695 L657.282 75.039 C657.282 70.295 655.504 66.144 651.946 62.586 648.388 59.028 644.237 57.25 639.493 57.25 L710.651 57.25 Z M639.493 57.25 C634.749 57.25 630.598 59.028 627.04 62.586 623.482 66.144 621.704 70.295 621.704 75.039 L621.704 430.826 C614.589 422.129 608.659 413.235 603.915 404.143 592.056 382.005 586.126 358.285 586.126 332.984 L586.126 57.25 639.493 57.25 Z" fill-opacity="1" fill="url(#linear-gradient)" stroke="none"/>
</svg>
